<?xml version="1.0" encoding="UTF-8"?>
<svg xmlns="http://www.w3.org/2000/svg" xmlns:xlink="http://www.w3.org/1999/xlink" width="400px" height="100px" viewBox="0 0 400 100" version="1.1">
<g id="surface1">
<path style=" stroke:none;fill-rule:nonzero;fill:rgb(0%,0%,0%);fill-opacity:1;" d="M 93.683594 59.710938 L 79.4375 45.46875 C 80.605469 37.003906 79.085938 28.394531 75.0625 20.949219 C 79.375 16.488281 79.328125 9.351562 74.925781 4.949219 C 72.765625 2.792969 69.898438 1.601562 66.851562 1.601562 C 63.871094 1.601562 61.0625 2.738281 58.921875 4.808594 C 53.097656 1.65625 46.550781 0 39.886719 0 C 29.230469 0 19.21875 4.144531 11.6875 11.675781 C -0.84375 24.210938 -3.566406 43.414062 4.820312 58.910156 C 2.753906 61.046875 1.617188 63.855469 1.617188 66.839844 C 1.617188 69.890625 2.804688 72.757812 4.960938 74.914062 C 7.117188 77.066406 9.984375 78.253906 13.03125 78.253906 C 16.015625 78.253906 18.824219 77.117188 20.960938 75.050781 C 26.773438 78.191406 33.304688 79.84375 39.957031 79.84375 C 45.367188 79.84375 50.605469 78.769531 55.546875 76.675781 C 60.4375 78.757812 65.738281 79.859375 71.210938 79.859375 C 81.878906 79.859375 91.902344 75.707031 99.441406 68.164062 C 100.1875 67.421875 100.1875 66.21875 99.441406 65.476562 Z M 89.214844 61.328125 C 88.972656 61.53125 88.726562 61.722656 88.484375 61.914062 C 88.046875 62.257812 87.605469 62.585938 87.15625 62.902344 C 86.898438 63.082031 86.644531 63.257812 86.382812 63.425781 C 85.894531 63.742188 85.398438 64.039062 84.890625 64.320312 C 84.660156 64.453125 84.433594 64.589844 84.199219 64.714844 C 82.710938 65.496094 81.152344 66.140625 79.546875 66.640625 C 79.304688 66.71875 79.054688 66.777344 78.808594 66.847656 C 78.238281 67.007812 77.664062 67.15625 77.082031 67.277344 C 76.789062 67.339844 76.496094 67.394531 76.199219 67.445312 C 75.644531 67.546875 75.085938 67.628906 74.523438 67.691406 C 74.222656 67.730469 73.921875 67.765625 73.621094 67.789062 C 73.453125 67.804688 73.28125 67.804688 73.113281 67.816406 L 73.113281 58.230469 L 73.117188 49.800781 C 73.464844 49.734375 73.808594 49.648438 74.148438 49.546875 C 74.195312 49.53125 74.238281 49.511719 74.285156 49.496094 C 74.664062 49.375 75.03125 49.230469 75.390625 49.0625 C 75.496094 49.015625 75.597656 48.96875 75.703125 48.917969 C 76.097656 48.71875 76.484375 48.503906 76.847656 48.257812 L 78.714844 50.125 L 89.585938 60.992188 C 89.460938 61.101562 89.339844 61.222656 89.214844 61.328125 Z M 67.875 67.691406 C 67.328125 67.625 66.785156 67.546875 66.246094 67.449219 C 65.933594 67.394531 65.628906 67.339844 65.320312 67.273438 C 64.757812 67.152344 64.203125 67.011719 63.648438 66.855469 C 63.390625 66.78125 63.125 66.71875 62.867188 66.636719 C 62.066406 66.390625 61.28125 66.113281 60.511719 65.796875 C 60.5 65.792969 60.488281 65.785156 60.476562 65.78125 C 59.710938 65.464844 58.964844 65.105469 58.230469 64.71875 C 57.992188 64.589844 57.761719 64.449219 57.527344 64.320312 C 57.023438 64.035156 56.527344 63.742188 56.039062 63.425781 C 55.78125 63.257812 55.527344 63.082031 55.273438 62.90625 C 54.816406 62.589844 54.371094 62.257812 53.933594 61.910156 C 53.691406 61.71875 53.449219 61.53125 53.214844 61.332031 C 53.085938 61.226562 52.964844 61.101562 52.839844 60.992188 L 65.574219 48.253906 C 65.582031 48.261719 65.59375 48.265625 65.601562 48.273438 C 65.796875 48.402344 65.996094 48.519531 66.199219 48.636719 C 66.285156 48.6875 66.371094 48.742188 66.457031 48.789062 C 66.75 48.949219 67.054688 49.089844 67.359375 49.21875 C 67.394531 49.234375 67.433594 49.242188 67.46875 49.257812 C 67.742188 49.363281 68.015625 49.464844 68.300781 49.550781 C 68.421875 49.589844 68.546875 49.609375 68.667969 49.644531 C 68.871094 49.695312 69.070312 49.75 69.273438 49.792969 C 69.285156 49.792969 69.300781 49.796875 69.3125 49.800781 L 69.3125 58.230469 L 69.308594 67.816406 C 69.144531 67.804688 68.976562 67.804688 68.808594 67.789062 C 68.496094 67.765625 68.183594 67.726562 67.875 67.691406 Z M 43.453125 36.601562 C 43.519531 36.050781 43.597656 35.503906 43.695312 34.960938 C 43.75 34.652344 43.804688 34.347656 43.871094 34.042969 C 43.992188 33.476562 44.136719 32.914062 44.292969 32.359375 C 44.363281 32.101562 44.425781 31.84375 44.503906 31.589844 C 45.003906 29.984375 45.644531 28.429688 46.429688 26.941406 C 46.550781 26.707031 46.691406 26.484375 46.820312 26.253906 C 47.105469 25.746094 47.402344 25.242188 47.71875 24.753906 C 47.886719 24.496094 48.058594 24.242188 48.234375 23.992188 C 48.554688 23.535156 48.886719 23.085938 49.230469 22.648438 C 49.421875 22.40625 49.613281 22.164062 49.8125 21.929688 C 49.917969 21.800781 50.039062 21.679688 50.148438 21.554688 L 62.886719 34.296875 C 62.636719 34.667969 62.421875 35.050781 62.226562 35.445312 C 62.175781 35.550781 62.125 35.652344 62.078125 35.757812 C 61.910156 36.121094 61.765625 36.488281 61.644531 36.871094 C 61.628906 36.914062 61.609375 36.957031 61.597656 37 C 61.496094 37.339844 61.40625 37.683594 61.339844 38.03125 L 52.914062 38.03125 L 43.332031 38.027344 C 43.339844 37.863281 43.339844 37.695312 43.355469 37.527344 C 43.378906 37.21875 43.417969 36.910156 43.453125 36.601562 Z M 47.714844 55.105469 C 47.398438 54.621094 47.105469 54.117188 46.820312 53.613281 C 46.691406 53.378906 46.550781 53.152344 46.425781 52.917969 C 45.644531 51.429688 45.003906 49.878906 44.503906 48.273438 C 44.425781 48.019531 44.363281 47.761719 44.292969 47.503906 C 44.136719 46.949219 43.992188 46.386719 43.867188 45.816406 C 43.804688 45.515625 43.75 45.210938 43.695312 44.90625 C 43.597656 44.359375 43.519531 43.8125 43.453125 43.261719 C 43.417969 42.953125 43.378906 42.644531 43.351562 42.335938 C 43.339844 42.167969 43.339844 42 43.328125 41.832031 L 52.914062 41.835938 L 61.339844 41.835938 C 61.34375 41.847656 61.347656 41.859375 61.351562 41.871094 C 61.390625 42.078125 61.445312 42.277344 61.5 42.480469 C 61.53125 42.601562 61.554688 42.722656 61.589844 42.839844 C 61.667969 43.105469 61.765625 43.371094 61.871094 43.628906 C 61.921875 43.761719 61.984375 43.894531 62.042969 44.027344 C 62.136719 44.242188 62.234375 44.460938 62.347656 44.671875 C 62.414062 44.796875 62.496094 44.914062 62.566406 45.039062 C 62.664062 45.203125 62.757812 45.371094 62.863281 45.527344 C 62.871094 45.539062 62.875 45.554688 62.886719 45.566406 L 50.148438 58.304688 C 50.035156 58.175781 49.914062 58.058594 49.804688 57.925781 C 49.609375 57.691406 49.421875 57.453125 49.230469 57.214844 C 48.886719 56.773438 48.550781 56.328125 48.234375 55.871094 C 48.058594 55.617188 47.882812 55.363281 47.714844 55.105469 Z M 39.957031 76.042969 C 33.449219 76.042969 27.070312 74.292969 21.503906 70.988281 L 20.046875 70.121094 L 18.910156 71.617188 C 18.753906 71.824219 18.601562 72.035156 18.414062 72.222656 C 16.976562 73.660156 15.066406 74.449219 13.035156 74.449219 C 11 74.449219 9.085938 73.660156 7.652344 72.222656 C 6.214844 70.785156 5.421875 68.875 5.421875 66.839844 C 5.421875 64.804688 6.210938 62.894531 7.648438 61.457031 C 7.851562 61.253906 8.078125 61.09375 8.386719 60.867188 L 9.761719 59.84375 L 8.886719 58.367188 C 0.4375 44.144531 2.695312 26.046875 14.378906 14.363281 C 21.191406 7.550781 30.25 3.800781 39.886719 3.800781 C 46.40625 3.800781 52.804688 5.554688 58.382812 8.871094 L 59.855469 9.746094 L 60.960938 8.265625 C 61.121094 8.050781 61.277344 7.828125 61.472656 7.632812 C 62.910156 6.195312 64.820312 5.402344 66.851562 5.402344 C 68.886719 5.402344 70.796875 6.195312 72.238281 7.636719 C 75.207031 10.601562 75.207031 15.433594 72.242188 18.398438 C 72.054688 18.582031 71.851562 18.726562 71.652344 18.878906 L 70.136719 20.035156 L 71.003906 21.492188 C 75.042969 28.285156 76.722656 36.28125 75.796875 44.179688 L 75.632812 44.347656 C 74.453125 45.527344 72.886719 46.175781 71.214844 46.175781 C 69.542969 46.175781 67.96875 45.523438 66.792969 44.347656 C 65.617188 43.160156 64.96875 41.59375 64.96875 39.929688 C 64.96875 38.265625 65.617188 36.695312 66.796875 35.507812 L 68.132812 34.164062 L 66.609375 32.640625 L 51.433594 17.453125 L 44.328125 10.347656 L 42.984375 11.691406 C 35.441406 19.234375 31.285156 29.261719 31.285156 39.929688 C 31.285156 50.597656 35.441406 60.621094 42.984375 68.160156 C 43.53125 68.710938 44.101562 69.238281 44.675781 69.75 C 44.835938 69.894531 45 70.03125 45.160156 70.167969 C 45.613281 70.558594 46.070312 70.941406 46.539062 71.308594 C 46.683594 71.421875 46.832031 71.539062 46.976562 71.652344 C 48.253906 72.628906 49.574219 73.527344 50.945312 74.339844 C 47.410156 75.472656 43.726562 76.042969 39.957031 76.042969 Z M 71.214844 76.054688 C 66.390625 76.054688 61.714844 75.117188 57.390625 73.328125 L 56.363281 72.863281 C 54.386719 71.972656 52.511719 70.914062 50.742188 69.695312 C 50.695312 69.660156 50.648438 69.628906 50.601562 69.597656 C 49.757812 69.011719 48.941406 68.390625 48.152344 67.734375 C 48.085938 67.679688 48.023438 67.621094 47.957031 67.566406 C 47.167969 66.902344 46.402344 66.207031 45.667969 65.472656 C 38.84375 58.652344 35.085938 49.582031 35.085938 39.929688 C 35.085938 30.914062 38.363281 22.40625 44.359375 15.761719 L 47.433594 18.839844 C 47.390625 18.890625 47.351562 18.949219 47.308594 19 C 46.714844 19.671875 46.152344 20.363281 45.625 21.074219 C 45.601562 21.105469 45.582031 21.132812 45.558594 21.164062 C 45.03125 21.882812 44.539062 22.621094 44.078125 23.375 C 44.042969 23.429688 44.007812 23.480469 43.976562 23.535156 C 43.527344 24.277344 43.117188 25.039062 42.734375 25.8125 C 42.683594 25.914062 42.628906 26.015625 42.578125 26.117188 C 42.214844 26.871094 41.886719 27.636719 41.582031 28.417969 C 41.535156 28.542969 41.484375 28.671875 41.4375 28.796875 C 41.148438 29.570312 40.890625 30.359375 40.660156 31.15625 C 40.625 31.289062 40.585938 31.421875 40.550781 31.558594 C 40.332031 32.363281 40.140625 33.175781 39.988281 34 C 39.964844 34.121094 39.945312 34.242188 39.925781 34.367188 C 39.773438 35.214844 39.65625 36.066406 39.574219 36.929688 C 39.566406 37.015625 39.5625 37.101562 39.554688 37.183594 C 39.476562 38.09375 39.429688 39.007812 39.429688 39.933594 C 39.429688 42.585938 39.753906 45.1875 40.378906 47.695312 C 41.761719 53.214844 44.609375 58.277344 48.734375 62.40625 C 48.734375 62.40625 48.738281 62.40625 48.738281 62.410156 C 49.804688 63.472656 50.933594 64.449219 52.117188 65.339844 C 52.183594 65.390625 52.246094 65.445312 52.3125 65.492188 C 52.496094 65.628906 52.6875 65.757812 52.871094 65.886719 C 53.109375 66.058594 53.34375 66.230469 53.585938 66.390625 C 53.722656 66.480469 53.859375 66.5625 53.996094 66.648438 C 54.296875 66.84375 54.59375 67.039062 54.898438 67.222656 C 54.902344 67.226562 54.90625 67.226562 54.914062 67.230469 C 59.789062 70.152344 65.375 71.710938 71.203125 71.710938 L 71.210938 71.710938 C 72.136719 71.710938 73.050781 71.664062 73.960938 71.589844 C 74.042969 71.582031 74.125 71.578125 74.207031 71.570312 C 75.074219 71.488281 75.929688 71.367188 76.777344 71.21875 C 76.898438 71.199219 77.019531 71.179688 77.136719 71.15625 C 77.964844 71 78.777344 70.8125 79.585938 70.59375 C 79.71875 70.558594 79.851562 70.519531 79.984375 70.484375 C 80.78125 70.253906 81.566406 69.996094 82.339844 69.707031 C 82.46875 69.660156 82.59375 69.609375 82.71875 69.5625 C 83.5 69.257812 84.269531 68.929688 85.023438 68.5625 C 85.125 68.515625 85.222656 68.460938 85.324219 68.410156 C 86.097656 68.027344 86.859375 67.617188 87.601562 67.167969 C 87.65625 67.136719 87.707031 67.101562 87.761719 67.066406 C 88.515625 66.605469 89.253906 66.113281 89.96875 65.585938 C 90 65.5625 90.03125 65.542969 90.0625 65.519531 C 90.773438 64.992188 91.460938 64.429688 92.132812 63.839844 C 92.1875 63.792969 92.242188 63.753906 92.292969 63.707031 L 95.371094 66.785156 C 88.734375 72.777344 80.226562 76.054688 71.214844 76.054688 Z M 71.214844 76.054688 "/>
<path style=" stroke:none;fill-rule:nonzero;fill:rgb(0%,0%,0%);fill-opacity:1;" d="M 25.351562 40.984375 L 25.335938 40.996094 C 24.5 41.628906 24.34375 42.816406 24.980469 43.652344 C 25.351562 44.144531 25.921875 44.402344 26.496094 44.402344 C 26.898438 44.402344 27.308594 44.273438 27.652344 44.011719 C 28.488281 43.375 28.652344 42.183594 28.015625 41.347656 C 27.378906 40.507812 26.1875 40.347656 25.351562 40.984375 Z M 25.351562 40.984375 "/>
<path style=" stroke:none;fill-rule:nonzero;fill:rgb(0%,0%,0%);fill-opacity:1;" d="M 14.117188 33.355469 L 14.101562 33.367188 C 13.25 33.980469 13.0625 35.164062 13.675781 36.015625 C 14.046875 36.53125 14.628906 36.800781 15.222656 36.800781 C 15.609375 36.800781 16.003906 36.683594 16.339844 36.441406 C 17.191406 35.828125 17.386719 34.640625 16.773438 33.789062 C 16.160156 32.9375 14.96875 32.742188 14.117188 33.355469 Z M 14.117188 33.355469 "/>
<path style=" stroke:none;fill-rule:nonzero;fill:rgb(0%,0%,0%);fill-opacity:1;" d="M 25.351562 55.582031 L 25.335938 55.59375 C 24.5 56.230469 24.34375 57.417969 24.980469 58.253906 C 25.351562 58.742188 25.921875 59 26.496094 59 C 26.898438 59 27.308594 58.875 27.652344 58.609375 C 28.488281 57.976562 28.652344 56.78125 28.015625 55.945312 C 27.378906 55.109375 26.1875 54.949219 25.351562 55.582031 Z M 25.351562 55.582031 "/>
<path style=" stroke:none;fill-rule:nonzero;fill:rgb(0%,0%,0%);fill-opacity:1;" d="M 14.117188 47.957031 L 14.101562 47.96875 C 13.25 48.582031 13.0625 49.765625 13.675781 50.617188 C 14.046875 51.132812 14.628906 51.402344 15.222656 51.402344 C 15.609375 51.402344 16.003906 51.285156 16.339844 51.042969 C 17.191406 50.429688 17.386719 49.242188 16.773438 48.390625 C 16.160156 47.535156 14.96875 47.34375 14.117188 47.957031 Z M 14.117188 47.957031 "/>
<path style=" stroke:none;fill-rule:nonzero;fill:rgb(0%,0%,0%);fill-opacity:1;" d="M 142.542969 27.164062 L 125.023438 27.164062 L 125.023438 37.757812 L 139.375 37.757812 L 139.375 41.921875 L 125.023438 41.921875 L 125.023438 56.953125 L 120 56.953125 L 120 23 L 142.542969 23 Z M 160.96875 34.859375 L 159.972656 38.527344 C 159.65625 38.347656 158.660156 38.03125 157.84375 38.03125 C 153.996094 38.03125 152.1875 41.695312 152.1875 46.222656 L 152.1875 56.953125 L 147.523438 56.953125 L 147.523438 34.589844 L 152.1875 34.589844 L 152.1875 37.757812 C 152.730469 35.675781 155.128906 34.179688 157.800781 34.179688 C 159.023438 34.179688 160.335938 34.5 160.96875 34.859375 Z M 184.78125 45.816406 L 184.78125 47.492188 L 167.171875 47.492188 C 167.171875 51.609375 171.109375 53.601562 174.007812 53.601562 C 176.132812 53.601562 178.488281 52.46875 179.753906 50.660156 L 182.96875 53.558594 C 181.476562 55.59375 179.03125 57.40625 174.007812 57.40625 C 166.761719 57.40625 162.328125 52.46875 162.328125 45.816406 C 162.328125 39.160156 166.628906 34.179688 173.554688 34.179688 C 180.480469 34.179688 183.648438 38.03125 184.597656 43.644531 C 184.734375 44.367188 184.78125 45.089844 184.78125 45.816406 Z M 167.261719 43.644531 L 179.890625 43.644531 C 179.890625 40.019531 176.992188 38.03125 173.554688 38.03125 C 170.113281 38.03125 167.261719 40.339844 167.261719 43.644531 Z M 205.015625 48.261719 C 205.105469 48.53125 205.875 50.75 204.925781 53.011719 C 203.75 55.683594 200.625 57.40625 196.730469 57.40625 L 196.6875 57.40625 C 193.5625 57.40625 190.710938 56.09375 188.582031 54.007812 L 191.617188 50.976562 C 192.882812 52.605469 194.695312 53.421875 196.6875 53.421875 C 198.90625 53.421875 200.761719 52.605469 201.257812 51.429688 C 201.574219 50.613281 201.304688 49.753906 201.304688 49.664062 C 200.761719 48.304688 198.769531 48.035156 196.503906 47.535156 C 193.472656 46.855469 190.4375 46.085938 189.261719 42.917969 C 188.671875 41.289062 188.855469 39.386719 189.667969 37.804688 C 191.527344 34.316406 196.144531 34.179688 196.6875 34.179688 C 199.808594 34.179688 202.753906 35.359375 204.835938 37.484375 L 201.800781 40.519531 C 200.535156 38.890625 198.679688 38.164062 196.6875 38.164062 C 196.640625 38.164062 193.96875 38.210938 193.199219 39.703125 C 192.929688 40.15625 192.792969 40.925781 193.019531 41.558594 C 193.472656 42.828125 195.507812 43.234375 197.683594 43.734375 C 200.625 44.414062 203.839844 45.089844 205.015625 48.261719 Z M 231.726562 44.050781 L 231.726562 56.953125 L 227.0625 56.953125 L 227.0625 44.503906 C 227.0625 39.976562 225.660156 37.984375 221.8125 37.984375 C 217.464844 37.984375 215.699219 41.015625 215.699219 44.957031 L 215.699219 56.953125 L 211.035156 56.953125 L 211.035156 23 L 215.699219 23 L 215.699219 38.210938 C 216.332031 36.21875 219.140625 34.40625 221.8125 34.226562 C 227.875 33.773438 231.726562 36.714844 231.726562 44.050781 Z M 259.066406 23 L 264.09375 23 L 264.09375 56.953125 L 259.066406 56.953125 L 259.066406 42.058594 L 243.085938 42.058594 L 243.085938 56.953125 L 238.0625 56.953125 L 238.0625 23 L 243.085938 23 L 243.085938 37.894531 L 259.066406 37.894531 Z M 270.566406 47.492188 L 270.566406 34.589844 L 275.230469 34.589844 L 275.230469 47.039062 C 275.230469 51.566406 276.632812 53.558594 280.480469 53.558594 C 284.824219 53.558594 286.589844 50.523438 286.589844 46.585938 L 286.589844 34.589844 L 291.253906 34.589844 L 291.253906 56.953125 L 286.589844 56.953125 L 286.589844 53.332031 C 285.957031 55.324219 283.152344 57.132812 280.480469 57.3125 C 274.414062 57.765625 270.566406 54.824219 270.566406 47.492188 Z M 308.820312 34.179688 C 315.246094 34.179688 320 39.160156 320 45.816406 C 320 52.46875 315.246094 57.40625 308.820312 57.40625 C 306.644531 57.40625 304.15625 56.589844 302.390625 55.277344 L 302.390625 56.953125 L 297.726562 56.953125 L 297.726562 23 L 302.390625 23 L 302.390625 36.355469 C 303.882812 35.132812 306.644531 34.179688 308.820312 34.179688 Z M 308.367188 53.601562 C 312.214844 53.601562 315.335938 50.34375 315.335938 45.816406 C 315.335938 41.242188 312.214844 38.03125 308.367188 38.03125 C 305.832031 38.03125 303.613281 39.160156 302.390625 41.558594 C 301.757812 42.828125 301.394531 44.277344 301.394531 45.816406 C 301.394531 47.355469 301.757812 48.804688 302.390625 50.027344 C 303.613281 52.425781 305.832031 53.601562 308.367188 53.601562 Z M 308.367188 53.601562 "/>
</g>
</svg>
