
        <svg xmlns="http://www.w3.org/2000/svg" xmlns:xlink="http://www.w3.org/1999/xlink" version="1.1" width="3187.5" 
        height="936.1835947023632" viewBox="0 0 3187.5 936.1835947023632">
			<rect fill="#95e1d3" width="3187.5" height="936.1835947023632"/>
			<g transform="scale(9.375) translate(10, 10)">
				<defs id="SvgjsDefs1297"></defs><g id="SvgjsG1298" featureKey="PG4fjM-0" transform="matrix(1.2675923109054565,0,0,1.2675923109054565,-13.371568851494933,-23.450458031264866)" fill="#111111"><path xmlns="http://www.w3.org/2000/svg" d="M84.455,65.607L73.216,54.369c0.923-6.677-0.276-13.47-3.45-19.342c3.4-3.52,3.363-9.149-0.11-12.623  c-1.702-1.702-3.964-2.64-6.369-2.64c-2.352,0-4.566,0.896-6.256,2.529c-4.595-2.485-9.759-3.793-15.017-3.793  c-8.404,0-16.304,3.271-22.244,9.212C9.883,37.599,7.736,52.75,14.352,64.973c-1.631,1.687-2.527,3.902-2.527,6.256  c0,2.406,0.937,4.668,2.638,6.369c1.7,1.7,3.961,2.636,6.367,2.636c2.354,0,4.569-0.896,6.256-2.527  c4.585,2.478,9.738,3.782,14.986,3.782c0,0,0,0,0,0c4.267,0,8.399-0.848,12.299-2.501c3.856,1.645,8.039,2.513,12.357,2.513  c8.414,0,16.323-3.277,22.271-9.226c0.586-0.586,0.586-1.535,0-2.121L84.455,65.607z M80.929,66.881  c-0.189,0.16-0.383,0.312-0.576,0.464c-0.343,0.27-0.691,0.53-1.047,0.778c-0.202,0.141-0.404,0.281-0.61,0.414  c-0.385,0.25-0.778,0.482-1.176,0.706c-0.183,0.103-0.361,0.212-0.546,0.31c-1.176,0.618-2.403,1.126-3.672,1.521  c-0.191,0.06-0.387,0.106-0.58,0.161c-0.45,0.126-0.903,0.243-1.362,0.34c-0.231,0.049-0.464,0.091-0.697,0.133  c-0.437,0.079-0.878,0.144-1.322,0.195c-0.237,0.028-0.475,0.057-0.714,0.077c-0.132,0.011-0.267,0.011-0.399,0.02l0.001-7.561  l0.001-6.65c0.276-0.053,0.547-0.121,0.815-0.203c0.036-0.011,0.071-0.026,0.107-0.038c0.298-0.096,0.588-0.211,0.873-0.342  c0.083-0.038,0.164-0.076,0.245-0.116c0.311-0.156,0.616-0.325,0.905-0.521l1.473,1.474v0l8.575,8.574  C81.123,66.703,81.029,66.797,80.929,66.881z M64.095,71.901c-0.432-0.051-0.86-0.114-1.286-0.19  c-0.244-0.043-0.487-0.087-0.729-0.139c-0.444-0.095-0.882-0.208-1.318-0.33c-0.206-0.058-0.415-0.108-0.619-0.171  c-0.629-0.196-1.25-0.413-1.858-0.665c-0.009-0.003-0.017-0.007-0.025-0.011c-0.604-0.251-1.194-0.535-1.774-0.84  c-0.188-0.099-0.37-0.21-0.555-0.314c-0.397-0.224-0.789-0.455-1.172-0.704c-0.205-0.132-0.405-0.271-0.606-0.411  c-0.359-0.25-0.711-0.512-1.057-0.785c-0.19-0.15-0.38-0.299-0.566-0.456c-0.102-0.085-0.196-0.181-0.297-0.269l10.046-10.048  c0.008,0.005,0.017,0.009,0.024,0.015c0.152,0.103,0.311,0.194,0.47,0.285c0.069,0.04,0.135,0.085,0.205,0.123  c0.231,0.124,0.469,0.237,0.711,0.337c0.028,0.012,0.057,0.019,0.085,0.03c0.215,0.086,0.433,0.166,0.656,0.233  c0.096,0.029,0.195,0.047,0.292,0.073c0.158,0.041,0.315,0.084,0.477,0.116c0.01,0.002,0.021,0.006,0.031,0.008l-0.001,6.65  L65.227,72c-0.131-0.009-0.264-0.008-0.394-0.02C64.585,71.96,64.34,71.93,64.095,71.901z M44.829,47.374  c0.051-0.435,0.115-0.866,0.191-1.294c0.043-0.242,0.087-0.483,0.138-0.723c0.095-0.448,0.209-0.891,0.332-1.33  c0.057-0.202,0.106-0.407,0.168-0.607c0.394-1.266,0.901-2.492,1.518-3.666c0.097-0.184,0.206-0.362,0.308-0.543  c0.225-0.4,0.459-0.796,0.709-1.183c0.132-0.203,0.27-0.402,0.409-0.602c0.25-0.36,0.513-0.713,0.786-1.06  c0.15-0.19,0.3-0.381,0.457-0.567c0.085-0.101,0.18-0.195,0.267-0.294l10.047,10.052c-0.197,0.291-0.366,0.596-0.521,0.907  c-0.04,0.081-0.078,0.162-0.116,0.244c-0.131,0.287-0.247,0.579-0.343,0.879c-0.011,0.034-0.026,0.067-0.036,0.102  c-0.081,0.267-0.15,0.538-0.202,0.813l-6.649,0l-7.56-0.001c0.009-0.131,0.008-0.264,0.019-0.395  C44.771,47.861,44.8,47.618,44.829,47.374z M48.192,61.974c-0.25-0.385-0.482-0.78-0.707-1.179c-0.103-0.183-0.212-0.362-0.31-0.548  c-0.616-1.173-1.123-2.398-1.517-3.664c-0.063-0.2-0.111-0.404-0.168-0.606c-0.123-0.44-0.237-0.883-0.333-1.332  c-0.051-0.239-0.094-0.479-0.137-0.72c-0.077-0.429-0.14-0.861-0.191-1.296c-0.029-0.243-0.058-0.486-0.079-0.731  c-0.011-0.131-0.01-0.264-0.019-0.396l7.563,0.001l6.647,0c0.002,0.01,0.005,0.019,0.007,0.028c0.032,0.163,0.076,0.323,0.118,0.483  c0.024,0.094,0.043,0.19,0.071,0.283c0.063,0.21,0.14,0.417,0.221,0.622c0.042,0.105,0.089,0.209,0.135,0.313  c0.076,0.171,0.152,0.343,0.241,0.509c0.053,0.099,0.117,0.193,0.174,0.291c0.076,0.129,0.149,0.26,0.233,0.385  c0.006,0.009,0.011,0.02,0.018,0.029L50.11,64.496c-0.088-0.101-0.184-0.195-0.269-0.297c-0.156-0.185-0.304-0.374-0.454-0.563  c-0.273-0.347-0.536-0.7-0.787-1.06C48.462,62.377,48.324,62.177,48.192,61.974z M42.072,78.489c-5.134,0-10.168-1.378-14.558-3.987  l-1.15-0.684l-0.896,1.18c-0.123,0.163-0.243,0.33-0.392,0.479c-1.133,1.133-2.64,1.757-4.245,1.757  c-1.604,0-3.113-0.624-4.246-1.757c-1.134-1.134-1.759-2.643-1.759-4.248c0-1.604,0.624-3.112,1.757-4.246  c0.159-0.159,0.338-0.285,0.581-0.465l1.087-0.807l-0.691-1.164c-6.667-11.223-4.886-25.498,4.332-34.715  c5.374-5.374,12.52-8.333,20.123-8.333c5.145,0,10.191,1.383,14.592,4l1.162,0.691l0.871-1.168c0.128-0.172,0.25-0.346,0.403-0.499  c1.135-1.135,2.643-1.76,4.246-1.76s3.112,0.625,4.248,1.761c2.341,2.341,2.341,6.151,0.002,8.49  c-0.145,0.145-0.306,0.26-0.465,0.381l-1.194,0.911l0.683,1.148c3.187,5.359,4.511,11.667,3.783,17.9l-0.131,0.131  c-0.931,0.93-2.167,1.442-3.484,1.443c-1.321-0.001-2.561-0.514-3.49-1.442c-0.927-0.936-1.438-2.173-1.44-3.486  c0-1.313,0.513-2.552,1.443-3.487l1.054-1.061l-1.202-1.203l-11.972-11.98h0c0,0,0,0,0,0l-4.545-4.545c0,0-0.001,0-0.001-0.001  l-1.059-1.06l-1.061,1.061c-5.95,5.949-9.227,13.86-9.227,22.275c0,8.416,3.277,16.326,9.227,22.273  c0.434,0.434,0.882,0.85,1.336,1.255c0.125,0.112,0.254,0.219,0.381,0.329c0.357,0.309,0.719,0.608,1.088,0.899  c0.115,0.091,0.23,0.182,0.347,0.271c1.005,0.771,2.049,1.481,3.13,2.121C47.949,78.039,45.046,78.489,42.072,78.489z M66.729,78.5  c-3.804,0-7.494-0.741-10.906-2.153l-0.809-0.365c-1.559-0.702-3.04-1.539-4.436-2.5c-0.037-0.026-0.074-0.052-0.111-0.078  c-0.664-0.461-1.308-0.951-1.932-1.469c-0.052-0.043-0.101-0.088-0.152-0.131c-0.623-0.524-1.228-1.072-1.807-1.652  c-5.383-5.38-8.348-12.537-8.348-20.151c0-7.112,2.587-13.826,7.315-19.066l2.427,2.429c-0.036,0.04-0.066,0.084-0.101,0.125  c-0.466,0.531-0.912,1.075-1.328,1.637c-0.017,0.023-0.033,0.047-0.05,0.07c-0.416,0.567-0.805,1.149-1.17,1.746  c-0.026,0.042-0.054,0.083-0.079,0.125c-0.354,0.585-0.677,1.186-0.98,1.795c-0.04,0.081-0.083,0.161-0.122,0.242  c-0.287,0.594-0.547,1.2-0.786,1.814c-0.039,0.1-0.078,0.2-0.116,0.3c-0.228,0.611-0.431,1.231-0.611,1.86  c-0.03,0.105-0.059,0.211-0.088,0.317c-0.172,0.635-0.322,1.277-0.444,1.927c-0.018,0.096-0.033,0.193-0.05,0.29  c-0.118,0.668-0.212,1.342-0.276,2.023c-0.006,0.066-0.009,0.133-0.015,0.2c-0.061,0.717-0.098,1.439-0.098,2.167  c0,2.093,0.254,4.147,0.749,6.126c1.088,4.354,3.336,8.348,6.59,11.603c0.001,0.001,0.002,0.001,0.003,0.003  c0.841,0.84,1.733,1.609,2.666,2.313c0.052,0.039,0.102,0.082,0.154,0.12c0.145,0.108,0.295,0.208,0.442,0.312  c0.188,0.133,0.373,0.27,0.563,0.397c0.106,0.071,0.216,0.135,0.322,0.204c0.237,0.153,0.473,0.308,0.714,0.452  c0.003,0.002,0.006,0.004,0.01,0.006c3.846,2.305,8.255,3.536,12.851,3.536h0.004h0.004c0,0,0,0,0,0c0.728,0,1.45-0.037,2.167-0.098  c0.066-0.006,0.132-0.008,0.197-0.015c0.682-0.063,1.356-0.159,2.026-0.276c0.095-0.017,0.19-0.032,0.285-0.049  c0.651-0.123,1.294-0.272,1.93-0.445c0.105-0.029,0.209-0.057,0.314-0.087c0.629-0.18,1.25-0.384,1.861-0.612  c0.1-0.038,0.199-0.077,0.298-0.115c0.616-0.239,1.222-0.5,1.817-0.787c0.08-0.039,0.158-0.08,0.238-0.12  c0.611-0.304,1.211-0.627,1.797-0.981c0.043-0.026,0.084-0.054,0.126-0.081c0.594-0.364,1.176-0.752,1.741-1.168  c0.024-0.018,0.05-0.034,0.074-0.052c0.562-0.416,1.104-0.861,1.634-1.326c0.041-0.036,0.085-0.066,0.126-0.103l2.428,2.428  C80.551,75.914,73.838,78.5,66.729,78.5z"></path><path xmlns="http://www.w3.org/2000/svg" d="M30.548,50.832l-0.012,0.009c-0.66,0.501-0.782,1.438-0.28,2.097c0.294,0.387,0.742,0.59,1.195,0.59  c0.319,0,0.641-0.101,0.913-0.308c0.66-0.501,0.788-1.442,0.287-2.102C32.148,50.458,31.208,50.33,30.548,50.832z"></path><path xmlns="http://www.w3.org/2000/svg" d="M21.686,44.814l-0.012,0.009c-0.672,0.484-0.819,1.417-0.335,2.089c0.292,0.406,0.752,0.621,1.219,0.621  c0.306,0,0.615-0.092,0.881-0.284c0.672-0.484,0.825-1.421,0.341-2.094C23.296,44.483,22.358,44.33,21.686,44.814z"></path><path xmlns="http://www.w3.org/2000/svg" d="M30.548,62.35l-0.012,0.009c-0.66,0.501-0.782,1.438-0.28,2.097c0.294,0.387,0.742,0.59,1.195,0.59  c0.319,0,0.641-0.101,0.913-0.308c0.66-0.501,0.788-1.442,0.287-2.102C32.148,61.977,31.208,61.849,30.548,62.35z"></path><path xmlns="http://www.w3.org/2000/svg" d="M21.686,56.333l-0.012,0.009c-0.672,0.484-0.819,1.417-0.335,2.089c0.292,0.406,0.752,0.621,1.219,0.621  c0.306,0,0.615-0.092,0.881-0.284c0.672-0.484,0.825-1.421,0.341-2.094C23.296,56.001,22.358,55.848,21.686,56.333z"></path></g><g id="SvgjsG1299" featureKey="jxYttZ-0" transform="matrix(2.26346755027771,0,0,2.26346755027771,115.92575731842498,11.682661916110852)" fill="#111111"><path d="M11.76 6.84 l-7.74 0 l0 4.68 l6.34 0 l0 1.84 l-6.34 0 l0 6.64 l-2.22 0 l0 -15 l9.96 0 l0 1.84 z M19.9 10.24 l-0.44 1.62 c-0.14 -0.08 -0.58 -0.22 -0.94 -0.22 c-1.7 0 -2.5 1.62 -2.5 3.62 l0 4.74 l-2.06 0 l0 -9.88 l2.06 0 l0 1.4 c0.24 -0.92 1.3 -1.58 2.48 -1.58 c0.54 0 1.12 0.14 1.4 0.3 z M30.419999999999998 15.08 l0 0.74 l-7.78 0 c0 1.82 1.74 2.7 3.02 2.7 c0.94 0 1.98 -0.5 2.54 -1.3 l1.42 1.28 c-0.66 0.9 -1.74 1.7 -3.96 1.7 c-3.2 0 -5.16 -2.18 -5.16 -5.12 s1.9 -5.14 4.96 -5.14 s4.46 1.7 4.88 4.18 c0.06 0.32 0.08 0.64 0.08 0.96 z M22.68 14.120000000000001 l5.58 0 c0 -1.6 -1.28 -2.48 -2.8 -2.48 s-2.78 1.02 -2.78 2.48 z M39.36 16.16 c0.04 0.12 0.38 1.1 -0.04 2.1 c-0.52 1.18 -1.9 1.94 -3.62 1.94 l-0.02 0 c-1.38 0 -2.64 -0.58 -3.58 -1.5 l1.34 -1.34 c0.56 0.72 1.36 1.08 2.24 1.08 c0.98 0 1.8 -0.36 2.02 -0.88 c0.14 -0.36 0.02 -0.74 0.02 -0.78 c-0.24 -0.6 -1.12 -0.72 -2.12 -0.94 c-1.34 -0.3 -2.68 -0.64 -3.2 -2.04 c-0.26 -0.72 -0.18 -1.56 0.18 -2.26 c0.82 -1.54 2.86 -1.6 3.1 -1.6 c1.38 0 2.68 0.52 3.6 1.46 l-1.34 1.34 c-0.56 -0.72 -1.38 -1.04 -2.26 -1.04 c-0.02 0 -1.2 0.02 -1.54 0.68 c-0.12 0.2 -0.18 0.54 -0.08 0.82 c0.2 0.56 1.1 0.74 2.06 0.96 c1.3 0.3 2.72 0.6 3.24 2 z M51.16 14.3 l0 5.7 l-2.06 0 l0 -5.5 c0 -2 -0.62 -2.88 -2.32 -2.88 c-1.92 0 -2.7 1.34 -2.7 3.08 l0 5.3 l-2.06 0 l0 -15 l2.06 0 l0 6.72 c0.28 -0.88 1.52 -1.68 2.7 -1.76 c2.68 -0.2 4.38 1.1 4.38 4.34 z M63.239999999999995 5 l2.22 0 l0 15 l-2.22 0 l0 -6.58 l-7.06 0 l0 6.58 l-2.22 0 l0 -15 l2.22 0 l0 6.58 l7.06 0 l0 -6.58 z M68.32 15.82 l0 -5.7 l2.06 0 l0 5.5 c0 2 0.62 2.88 2.32 2.88 c1.92 0 2.7 -1.34 2.7 -3.08 l0 -5.3 l2.06 0 l0 9.88 l-2.06 0 l0 -1.6 c-0.28 0.88 -1.52 1.68 -2.7 1.76 c-2.68 0.2 -4.38 -1.1 -4.38 -4.34 z M85.21999999999998 9.94 c2.84 0 4.94 2.2 4.94 5.14 s-2.1 5.12 -4.94 5.12 c-0.96 0 -2.06 -0.36 -2.84 -0.94 l0 0.74 l-2.06 0 l0 -15 l2.06 0 l0 5.9 c0.66 -0.54 1.88 -0.96 2.84 -0.96 z M85.01999999999998 18.52 c1.7 0 3.08 -1.44 3.08 -3.44 c0 -2.02 -1.38 -3.44 -3.08 -3.44 c-1.12 0 -2.1 0.5 -2.64 1.56 c-0.28 0.56 -0.44 1.2 -0.44 1.88 s0.16 1.32 0.44 1.86 c0.54 1.06 1.52 1.58 2.64 1.58 z"></path></g>
			</g>
		</svg>
	